<svg width="121" height="41" viewBox="0 0 121 41" fill="none" xmlns="http://www.w3.org/2000/svg">
<path d="M30.5 11.4169H10.3276L0.5 33.9169L30.5 11.4169Z" fill="#4A36EC"/>
<path d="M6.75001 33.9169H26.9224L36.75 11.4169L6.75001 33.9169Z" fill="#4A36EC"/>
<path d="M51.0347 33.3244C45.5874 33.3244 41.9896 28.5497 41.9896 23.943C41.9896 19.0338 45.2176 14.5617 50.5975 14.5953C56.4483 14.5953 60.5842 19.101 59.0038 25.7252H46.3944C46.5962 27.7763 48.7482 29.7265 51.4382 29.7265C52.7495 29.7602 55.2042 29.0877 55.8767 28.0789L58.9702 30.4663C57.1544 32.4838 54.2627 33.3244 51.0347 33.3244ZM46.3608 22.2282H55.0697C55.305 20.6814 54.1618 18.1595 50.732 18.1595C47.8739 18.1595 46.3608 20.3452 46.3608 22.2282ZM65.0789 32.9882V18.3476H60.3509V14.5867H73.7558V18.3476H69.0278V32.9882H65.0789ZM74.9703 32.9882V22.3963C74.9703 18.025 77.5594 14.6962 82.0315 14.7298C84.1835 14.7298 85.9992 15.6713 87.0416 17.0835C88.084 15.6713 89.8997 14.6962 92.0517 14.7298C96.5239 14.7298 99.0794 18.025 99.0794 22.3963V32.9882H95.0444V22.3963C95.0444 20.4124 94.002 18.7648 92.0517 18.7648C90.1351 18.7648 89.0591 20.4124 89.0591 22.3963V32.9882H84.9905V22.3963C84.9905 20.4124 83.9481 18.7648 82.0315 18.7648C80.0813 18.7648 79.0053 20.4124 79.0053 22.3963V32.9882H74.9703ZM100.603 31.3069L102.015 27.9444C106.622 30.4999 112.809 31.3069 112.842 28.0117C112.842 25.0527 100.737 26.2968 101.107 19.5382C101.511 13.7547 110.119 12.645 116.608 17.0163L114.961 19.8072C111.195 16.8482 105.411 17.1172 105.31 19.7399C105.142 22.7662 117.012 21.9592 117.012 27.8435C117.012 33.2908 110.657 36.2498 100.603 31.3069Z" fill="#1C1D20"/>
</svg>
